<?xml version="1.0" encoding="UTF-8"?>
<svg width="134px" height="91px" viewBox="0 0 134 91" version="1.1" xmlns="http://www.w3.org/2000/svg" xmlns:xlink="http://www.w3.org/1999/xlink">
    <defs>
        <polygon id="path-1" points="0.244719388 0.404773632 132.370655 0.404773632 132.370655 23.1985269 0.244719388 23.1985269"></polygon>
    </defs>
    <g id="Symbols" stroke="none" stroke-width="1" fill="none" fill-rule="evenodd">
        <g id="NAV-DARK" transform="translate(-70.000000, -30.000000)">
            <g id="LOGO" transform="translate(70.000000, 30.000000)">
                <g id="Group-10">
                    <g id="Group-8" transform="translate(1.500000, 0.000000)">
                        <path d="M4.75706548,73.6111241 C4.75706548,72.2459699 5.74225255,71.2617261 7.20380867,71.2617261 C8.3476352,71.2617261 9.45991412,71.9285445 10.0002798,73.1347609 L12.383477,70.7538455 C11.3031964,68.9127784 9.52346003,67.8970172 7.10871514,67.8970172 C3.8038767,67.8970172 1.26158929,70.3414177 1.26158929,73.8015794 C1.26158929,76.2459799 2.72359609,78.0240122 4.75706548,78.8173505 C7.87126616,80.0240172 10.7943784,80.0240172 10.7943784,83.3572087 C10.7943784,85.5791863 9.45991412,87.1347958 7.20380867,87.1347958 C4.94770323,87.1347958 3.61323895,85.4206988 3.61323895,83.3572087 L0.0542168367,83.3572087 C0.0542168367,87.2937336 3.13641922,90.499955 7.20380867,90.499955 C11.2076522,90.499955 14.3534005,87.3887361 14.3534005,83.261756 C14.3534005,79.8650794 12.5741148,78.0240122 9.80964201,76.9762833 C6.88607908,75.8650694 4.75706548,75.6746142 4.75706548,73.6111241 L4.75706548,73.6111241 Z M20.3591658,82.3729649 C20.3591658,79.5156863 22.2019974,77.547649 24.9349226,77.547649 C26.3329328,77.547649 27.3816658,78.1190147 28.1762151,78.9762883 L30.7500502,76.658858 C29.288494,75.1667336 27.4136641,74.2459749 24.9349226,74.2459749 C20.2636216,74.2459749 16.8001437,77.7065868 16.8001437,82.3729649 C16.8001437,87.0397933 20.2636216,90.499955 24.9349226,90.499955 C29.5426777,90.499955 33.0381539,87.0078256 33.0381539,82.3729649 L29.5426777,82.3729649 C29.5426777,85.2302435 27.6358495,87.1982808 24.9349226,87.1982808 C22.2019974,87.1982808 20.3591658,85.2302435 20.3591658,82.3729649 L20.3591658,82.3729649 Z M35.0711726,82.3729649 C35.0711726,87.0078256 38.5031029,90.499955 43.2059515,90.499955 C47.9092509,90.499955 51.3407304,87.0078256 51.3407304,82.3729649 C51.3407304,77.7381042 47.9092509,74.2459749 43.2059515,74.2459749 C38.5031029,74.2459749 35.0711726,77.7381042 35.0711726,82.3729649 L35.0711726,82.3729649 Z M38.6301947,82.3729649 C38.6301947,79.6111341 40.473477,77.6111341 43.2059515,77.6111341 C45.9388767,77.6111341 47.782159,79.6111341 47.782159,82.3729649 C47.782159,85.1347908 45.9388767,87.1347958 43.2059515,87.1347958 C40.473477,87.1347958 38.6301947,85.1347908 38.6301947,82.3729649 L38.6301947,82.3729649 Z M55.8213937,74.4364301 L52.6120995,74.4364301 L52.6120995,77.7381042 L55.8213937,77.7381042 L55.8213937,90.3094998 L59.3168699,90.3094998 L59.3168699,77.7381042 L64.0832645,77.7381042 L64.0832645,74.4364301 L59.3168699,74.4364301 L59.3168699,67.7065619 L55.8213937,68.0874724 L55.8213937,74.4364301 Z M66.562006,90.3094998 L70.0574821,90.3094998 L70.0574821,67.7065619 L66.562006,68.0874724 L66.562006,90.3094998 Z M85.1512151,74.4364301 L85.1512151,76.0874923 C84.4837577,75.2302187 82.7044719,74.2459749 80.607006,74.2459749 C76.0632474,74.2459749 72.6313172,77.6111341 72.6313172,82.3729649 C72.6313172,87.1347958 76.0632474,90.499955 80.607006,90.499955 C82.7360196,90.499955 84.4837577,89.5157112 85.1512151,88.6588878 L85.1512151,90.3094998 L88.7102372,90.3094998 L88.7102372,74.4364301 L85.1512151,74.4364301 Z M85.278307,82.3729649 C85.278307,84.9763032 83.3083835,87.1347958 80.7340978,87.1347958 C78.0967168,87.1347958 76.0632474,84.9763032 76.0632474,82.3729649 C76.0632474,79.7696266 78.0967168,77.6111341 80.7340978,77.6111341 C83.3083835,77.6111341 85.278307,79.7696266 85.278307,82.3729649 L85.278307,82.3729649 Z M92.4278988,90.3094998 L95.923375,90.3094998 L95.923375,81.547659 C95.923375,79.1982609 97.1307474,77.547649 99.4188512,77.547649 C101.706955,77.547649 102.882329,78.7538654 102.882329,81.547659 L102.882329,90.3094998 L106.377805,90.3094998 L106.377805,80.7858381 C106.377805,76.5634052 104.217244,74.2459749 100.276946,74.2459749 C98.0843869,74.2459749 96.6543784,75.2937037 95.923375,76.2459749 L95.923375,74.4364301 L92.4278988,74.4364301 L92.4278988,90.3094998 Z M125.189651,90.3094998 L125.189651,67.7065619 L121.694174,68.0874724 L121.694174,76.0874923 C120.709438,75.0077958 118.993247,74.2459749 117.023324,74.2459749 C112.288477,74.2459749 109.142729,77.4206789 109.142729,82.3729649 C109.142729,87.325251 112.288477,90.499955 117.023324,90.499955 C119.120339,90.499955 120.67744,89.6426813 121.694174,88.6588878 L121.694174,90.3094998 L125.189651,90.3094998 Z M121.75772,82.3729649 C121.75772,85.1032734 119.946436,87.1347958 117.181963,87.1347958 C114.417491,87.1347958 112.574659,85.1032734 112.574659,82.3729649 C112.574659,79.6426565 114.417491,77.6111341 117.181963,77.6111341 C119.946436,77.6111341 121.75772,79.6426565 121.75772,82.3729649 L121.75772,82.3729649 Z" id="Fill-1" fill="#1F1F1F"></path>
                        <path d="M44.7212738,40.7857386 L41.2257976,40.7857386 L41.2257976,49.5475794 C41.2257976,51.8969774 40.0184252,53.5475893 37.7303214,53.5475893 C35.4426684,53.5475893 34.2668435,52.3413729 34.2668435,49.5475794 L34.2668435,40.7857386 L30.7713673,40.7857386 L30.7713673,50.3094002 C30.7713673,54.5318331 32.9323793,56.8492634 36.8726769,56.8492634 C39.0652364,56.8492634 40.4947942,55.8015346 41.2257976,54.8492585 L41.2257976,56.6588082 L44.7212738,56.6588082 L44.7212738,40.7857386 Z M47.2635612,51.4206142 C47.2635612,54.4363803 49.4245731,56.8492634 52.6974133,56.8492634 C55.9067075,56.8492634 58.2263588,54.6903206 58.2263588,51.5160669 C58.2263588,48.8172759 56.7648027,47.579542 55.1441565,46.9762087 C53.4284167,46.341358 51.6486803,46.3728754 51.6486803,44.9762037 C51.6486803,44.341353 52.0935017,43.7065022 52.9195986,43.7065022 C53.5555085,43.7065022 54.0638759,44.1189301 54.3180595,44.7537808 L56.4786207,42.6268057 C55.5889779,41.3255868 54.3496071,40.5952833 52.6974133,40.5952833 C50.2822177,40.5952833 48.3122942,42.4363505 48.3122942,44.9762037 C48.3122942,47.5475744 50.028034,48.7857585 51.6171327,49.230154 C53.1737823,49.6745495 54.7308827,49.8015197 54.7308827,51.579552 C54.7308827,52.8492535 53.9047857,53.5475893 52.6974133,53.5475893 C51.6486803,53.5475893 50.5999473,52.7538007 50.5999473,51.4206142 L47.2635612,51.4206142 Z M60.8317415,56.6588082 L64.3272177,56.6588082 L64.3272177,40.7857386 L60.8317415,40.7857386 L60.8317415,56.6588082 Z M60.2282806,36.6267908 C60.2282806,37.9604276 61.2770136,39.0081565 62.5794796,39.0081565 C63.8823963,39.0081565 64.9311293,37.9604276 64.9311293,36.6267908 C64.9311293,35.2936042 63.8823963,34.2458754 62.5794796,34.2458754 C61.2770136,34.2458754 60.2282806,35.2936042 60.2282806,36.6267908 L60.2282806,36.6267908 Z M70.555619,48.7222734 C70.555619,45.8649948 72.3989014,43.8969575 75.1313759,43.8969575 C76.5298367,43.8969575 77.578119,44.4683231 78.3726684,45.3255968 L80.9465034,43.0081664 C79.4849473,41.516042 77.6101173,40.5952833 75.1313759,40.5952833 C70.4605255,40.5952833 66.9965969,44.055445 66.9965969,48.7222734 C66.9965969,53.3891017 70.4605255,56.8492634 75.1313759,56.8492634 C79.739131,56.8492634 83.2346071,53.3571341 83.2346071,48.7222734 L79.739131,48.7222734 C79.739131,51.579552 77.8323027,53.5475893 75.1313759,53.5475893 C72.3989014,53.5475893 70.555619,51.579552 70.555619,48.7222734 L70.555619,48.7222734 Z" id="Fill-3" fill="#1F1F1F"></path>
                        <g id="Group-7">
                            <mask id="mask-2" fill="white">
                                <use xlink:href="#path-1"></use>
                            </mask>
                            <g id="Clip-6"></g>
                            <path d="M3.86728741,11.8968328 C3.86728741,7.45242736 6.91794218,3.96029801 11.2395153,3.96029801 C13.9404422,3.96029801 15.878818,5.19848209 17.2132823,7.13500199 L19.6920238,4.65863383 C17.690102,2.21423333 14.830085,0.595138806 11.2395153,0.595138806 C4.94756803,0.595138806 0.244719388,5.64287761 0.244719388,11.8968328 C0.244719388,18.1507881 4.94756803,23.1985269 11.2395153,23.1985269 C17.5310119,23.1985269 22.2338605,18.1507881 22.2338605,11.8968328 L18.6117432,11.8968328 C18.6117432,16.4682085 15.5610884,19.8333677 11.2395153,19.8333677 C6.91794218,19.8333677 3.86728741,16.3412383 3.86728741,11.8968328 L3.86728741,11.8968328 Z M25.0623299,23.0080716 L28.5578061,23.0080716 L28.5578061,14.2462308 C28.5578061,11.9288005 29.9878146,10.2462209 32.2439201,10.2462209 C34.6591156,10.2462209 35.707398,11.7698627 35.707398,14.2462308 L35.707398,23.0080716 L39.2028741,23.0080716 L39.2028741,13.4839597 C39.2028741,9.26197711 36.8832228,6.94454677 33.1020153,6.94454677 C31.0365476,6.94454677 29.5109949,7.80137015 28.5578061,8.94455174 L28.5578061,0.404683582 L25.0623299,0.78559403 L25.0623299,23.0080716 Z M54.1379677,7.13500199 L54.1379677,8.78561393 C53.4705102,7.92879055 51.6912245,6.94454677 49.5937585,6.94454677 C45.05,6.94454677 41.6180697,10.309706 41.6180697,15.0715368 C41.6180697,19.8333677 45.05,23.1985269 49.5937585,23.1985269 C51.7227721,23.1985269 53.4705102,22.2142831 54.1379677,21.3570095 L54.1379677,23.0080716 L57.6969898,23.0080716 L57.6969898,7.13500199 L54.1379677,7.13500199 Z M54.2650595,15.0715368 C54.2650595,17.6744249 52.2951361,19.8333677 49.7208503,19.8333677 C47.0834694,19.8333677 45.05,17.6744249 45.05,15.0715368 C45.05,12.4681985 47.0834694,10.309706 49.7208503,10.309706 C52.2951361,10.309706 54.2650595,12.4681985 54.2650595,15.0715368 L54.2650595,15.0715368 Z M61.5417432,23.0080716 L65.0372194,23.0080716 L65.0372194,13.4839597 C65.0372194,11.4204697 66.2445918,10.2462209 67.8652381,10.2462209 C69.7085204,10.2462209 70.6932568,11.4204697 70.6932568,13.4839597 L70.6932568,23.0080716 L74.188733,23.0080716 L74.188733,13.4839597 C74.188733,11.4204697 75.3965561,10.2462209 77.0167517,10.2462209 C78.8915816,10.2462209 79.8452211,11.4204697 79.8452211,13.4839597 L79.8452211,23.0080716 L83.3402466,23.0080716 L83.3402466,12.5951687 C83.3402466,8.69061144 81.3703231,6.94454677 78.1290306,6.94454677 C75.8413776,6.94454677 74.5384609,7.86530547 73.3310884,9.13500697 C72.4729932,7.73788507 71.1065306,6.94454677 69.1681548,6.94454677 C67.4204167,6.94454677 65.8953146,7.76985274 65.0372194,8.94454677 L65.0372194,7.13500199 L61.5417432,7.13500199 L61.5417432,23.0080716 Z M90.553835,23.0080716 L90.553835,21.3570095 C91.5705697,22.3412532 93.1276701,23.1985269 95.2251361,23.1985269 C99.9595323,23.1985269 103.105731,20.0238229 103.105731,15.0715368 C103.105731,10.1192507 99.9595323,6.94454677 95.2251361,6.94454677 C93.2547619,6.94454677 91.5390221,7.70636766 90.553835,8.78561393 L90.553835,0.404683582 L87.0583588,0.78559403 L87.0583588,23.0080716 L90.553835,23.0080716 Z M90.4902891,15.0715368 C90.4902891,12.3412284 92.3015731,10.309706 95.0660459,10.309706 C97.8305187,10.309706 99.673801,12.3412284 99.673801,15.0715368 C99.673801,17.801395 97.8305187,19.8333677 95.0660459,19.8333677 C92.3015731,19.8333677 90.4902891,17.801395 90.4902891,15.0715368 L90.4902891,15.0715368 Z M121.694039,16.2777532 C121.757585,15.8968428 121.789583,15.4839647 121.789583,15.0715368 C121.789583,10.5636463 118.230561,6.94454677 113.71835,6.94454677 C109.206139,6.94454677 105.647117,10.5636463 105.647117,15.0715368 C105.647117,19.5794274 109.206139,23.1985269 113.813444,23.1985269 C117.404464,23.1985269 120.486667,21.262007 121.566947,18.3732109 L117.404464,18.3732109 C116.737007,19.3889721 115.43409,19.8968527 113.813444,19.8968527 C111.525791,19.8968527 109.714507,18.2777582 109.333231,16.2777532 L121.694039,16.2777532 Z M113.71835,10.1827358 C115.720272,10.1827358 117.436012,11.5159224 117.944379,13.1665343 L109.491871,13.1665343 C110.000238,11.5159224 111.716429,10.1827358 113.71835,10.1827358 L113.71835,10.1827358 Z M124.776241,23.0080716 L128.271718,23.0080716 L128.271718,14.2462308 C128.271718,11.8968328 129.828367,10.309706 132.052925,10.309706 L132.370655,10.309706 L132.370655,6.94454677 C130.146548,6.94454677 129.034269,7.76985274 128.271718,8.78561393 L128.271718,7.13500199 L124.776241,7.13500199 L124.776241,23.0080716 Z" id="Fill-5" fill="#1F1F1F" mask="url(#mask-2)"></path>
                        </g>
                    </g>
                    <path d="M18.5009025,34 L20.2802347,38.8215916 L26.5708484,56.5 L30.5,56.5 L22.2396209,34 L18.5009025,34 Z M11.9544224,34 L9.74368231,34 L8.26037906,34 L0,56.5 L3.88447653,56.5 L10.1750903,38.8215916 L10.8488267,36.9949475 L11.5230144,38.8215916 L17.8136282,56.5 L21.6981047,56.5 L13.4377256,34 L11.9544224,34 Z" id="Fill-9" fill="#1F1F1F"></path>
                </g>
            </g>
        </g>
    </g>
</svg>